<svg xmlns="http://www.w3.org/2000/svg" xmlns:xlink="http://www.w3.org/1999/xlink" preserveAspectRatio="xMidYMid" width="16" height="16" viewBox="0 0 16 16">
  <defs>
    <style>

      .cls-2 {
        fill: #bdc6d2;
      }
    </style>
  </defs>
  <path d="M15.581,1.586 C15.581,1.586 9.339,7.826 9.339,7.826 C9.346,7.905 9.308,7.971 9.273,8.043 C9.273,8.043 15.462,14.146 15.462,14.146 C15.648,14.325 15.644,14.619 15.451,14.803 C15.451,14.803 14.648,15.557 14.648,15.557 C14.456,15.742 14.150,15.747 13.964,15.568 C13.964,15.568 7.844,9.533 7.844,9.533 C7.844,9.533 1.723,15.568 1.723,15.568 C1.537,15.747 1.231,15.742 1.040,15.557 C1.040,15.557 0.236,14.803 0.236,14.803 C0.043,14.619 0.040,14.325 0.226,14.146 C0.226,14.146 6.397,8.061 6.397,8.061 C6.362,7.987 6.342,7.908 6.348,7.826 C6.348,7.826 0.106,1.586 0.106,1.586 C-0.076,1.409 -0.072,1.118 0.118,0.935 C0.118,0.935 0.909,0.108 0.909,0.108 C1.098,-0.075 1.401,-0.079 1.585,0.097 C1.585,0.097 7.844,6.356 7.844,6.356 C7.844,6.356 14.102,0.097 14.102,0.097 C14.286,-0.079 14.590,-0.075 14.779,0.108 C14.779,0.108 15.570,0.935 15.570,0.935 C15.760,1.118 15.764,1.409 15.581,1.586 Z" id="path-1" class="cls-2" fill-rule="evenodd"/>
</svg>
