<?xml version="1.0" standalone="no"?>
<!DOCTYPE svg PUBLIC "-//W3C//DTD SVG 20010904//EN"
 "http://www.w3.org/TR/2001/REC-SVG-20010904/DTD/svg10.dtd">
<svg version="1.0" xmlns="http://www.w3.org/2000/svg"
 width="512.000000pt" height="512.000000pt" viewBox="0 0 512.000000 512.000000"
 preserveAspectRatio="xMidYMid meet">
<metadata>
Created by potrace 1.14, written by Peter Selinger 2001-2017
</metadata>
<g transform="translate(0.000000,512.000000) scale(0.100000,-0.100000)"
fill="#000000" stroke="none">
<path d="M2240 5099 c-157 -41 -282 -133 -366 -270 l-35 -56 -89 -6 c-175 -13
-332 -93 -444 -227 -77 -92 -119 -185 -140 -313 l-12 -72 -100 -1 c-290 -5
-541 -207 -607 -491 -18 -75 -14 -237 6 -311 l15 -53 -51 -34 c-154 -104 -282
-285 -338 -478 -28 -96 -35 -293 -13 -392 45 -211 159 -394 327 -521 42 -32
77 -61 77 -64 0 -3 -7 -27 -16 -55 -22 -69 -26 -225 -8 -303 25 -106 88 -227
146 -282 45 -41 128 -11 128 46 0 12 -16 46 -36 75 -96 141 -123 282 -84 431
26 99 114 214 210 278 48 32 60 49 60 85 0 39 -30 68 -69 68 -49 0 -153 -76
-227 -166 l-31 -38 -59 44 c-117 86 -203 207 -252 355 -23 68 -26 93 -26 212
1 119 4 145 27 215 38 116 91 199 182 290 125 123 280 192 470 208 76 7 104
27 105 78 0 43 -41 73 -99 71 -78 -1 -203 -24 -266 -48 -36 -14 -56 142 -31
250 59 253 309 422 553 374 94 -18 105 -18 134 3 28 20 29 23 29 108 0 156 44
268 144 366 34 33 84 72 112 86 245 127 541 32 663 -212 29 -57 43 -110 56
-212 5 -38 11 -50 34 -62 36 -18 71 -12 94 16 22 28 21 106 -4 199 -51 194
-162 328 -349 421 -33 16 -60 34 -60 40 0 23 137 147 190 172 69 33 97 39 190
42 233 8 434 -167 457 -397 l5 -58 -83 0 c-53 -1 -90 -5 -101 -14 -43 -32 -38
-109 9 -127 13 -5 58 -9 99 -9 63 0 74 -2 75 -17 1 -22 1 -453 0 -471 -1 -10
-67 -12 -316 -12 -347 1 -381 6 -447 60 -45 37 -88 121 -88 172 0 76 -80 116
-129 64 -17 -18 -22 -34 -20 -72 6 -133 91 -264 211 -325 86 -44 124 -48 461
-49 177 0 323 -3 326 -5 2 -3 5 -286 5 -630 l1 -625 -612 0 c-434 0 -619 -3
-637 -11 -29 -14 -51 -59 -41 -89 16 -52 5 -51 669 -51 l616 0 1 -27 c4 -122
3 -986 -1 -992 -3 -5 -63 -10 -134 -11 -147 -1 -210 -14 -285 -54 -51 -28
-124 -103 -151 -155 -19 -36 -40 -120 -40 -163 0 -40 34 -87 64 -87 48 0 86
43 86 99 0 44 49 130 92 161 53 39 113 50 252 47 l120 -2 -1 -268 c0 -147 -3
-270 -6 -273 -3 -3 -42 -7 -87 -8 -102 -3 -125 -21 -121 -93 2 -33 42 -54 108
-58 32 -1 59 -3 60 -4 7 -3 -42 -78 -74 -112 -192 -207 -525 -191 -697 34 -14
19 -26 37 -26 40 0 3 25 17 55 31 113 52 205 130 205 175 0 31 -32 70 -58 72
-34 3 -48 -3 -97 -41 -204 -156 -463 -147 -643 23 -91 87 -152 218 -152 329 0
40 3 48 23 54 12 3 52 26 88 49 80 52 98 86 68 134 -27 44 -70 45 -134 2 -91
-62 -172 -88 -295 -95 -99 -6 -132 -38 -104 -104 16 -38 53 -50 140 -45 l61 3
7 -61 c34 -296 311 -547 608 -550 l66 -1 36 -57 c117 -190 313 -294 541 -286
108 3 196 29 282 82 78 48 108 75 165 144 91 113 128 229 131 410 1 97 4 120
17 123 8 3 100 4 203 4 l189 -1 41 -36 c23 -20 68 -63 99 -96 l57 -60 -19 -55
c-33 -96 -7 -194 70 -263 79 -71 182 -87 275 -43 196 93 197 358 2 458 -43 21
-125 28 -183 14 -29 -7 -36 -2 -133 93 -57 56 -117 109 -135 118 -26 14 -66
18 -241 19 -115 2 -217 3 -226 3 -14 1 -16 25 -16 200 l0 199 324 0 323 0 15
-29 c67 -128 211 -182 337 -125 161 72 202 278 81 405 -118 123 -340 91 -408
-59 l-18 -40 -327 0 -327 0 0 250 0 250 392 0 391 0 12 -34 c15 -41 79 -102
131 -123 165 -71 352 53 352 233 0 70 -37 151 -89 194 -126 103 -318 63 -393
-83 l-19 -37 -388 0 -388 0 0 270 c-1 149 2 271 5 271 3 1 44 3 89 4 l84 2 18
-31 c56 -93 138 -148 224 -148 146 0 252 97 261 240 5 72 -19 137 -69 187 -53
52 -100 74 -167 76 -71 3 -103 -5 -153 -37 -43 -29 -58 -46 -92 -103 l-20 -35
-85 1 c-46 1 -87 2 -90 2 -3 1 -6 98 -5 216 l0 215 408 0 c251 0 416 -4 428
-10 10 -5 55 -46 99 -89 45 -44 90 -83 102 -86 31 -10 76 13 87 44 15 42 -6
77 -102 169 -134 129 -97 122 -597 122 l-425 0 -1 155 -1 155 321 0 c218 0
333 4 361 12 32 9 74 45 201 170 l161 158 65 -6 c158 -15 280 88 285 240 8
220 -249 342 -420 199 -19 -15 -46 -55 -61 -87 -23 -50 -27 -68 -23 -120 3
-34 13 -77 22 -95 l17 -32 -142 -142 -142 -142 -322 -3 -322 -3 1 248 1 248
84 0 84 0 20 -35 c85 -155 287 -188 408 -66 136 135 74 368 -112 423 -112 32
-250 -31 -295 -134 -15 -35 -15 -35 -124 -35 -72 0 -70 -1 -70 45 -1 137 -83
308 -198 412 -55 49 -152 104 -222 126 -94 30 -234 33 -330 8z m1215 -575 c87
-41 72 -172 -22 -190 -67 -13 -123 33 -123 99 0 55 32 86 108 106 2 1 19 -6
37 -15z m738 -146 c26 -13 49 -74 42 -109 -4 -16 -20 -40 -37 -54 -49 -41
-119 -30 -151 25 -56 94 46 190 146 138z m-706 -1555 c49 -32 51 -111 3 -155
-90 -82 -220 34 -149 133 32 46 94 55 146 22z m583 -690 c39 -26 49 -45 50
-85 1 -115 -162 -143 -200 -35 -30 88 75 172 150 120z m-120 -655 c61 -38 54
-140 -12 -174 -35 -18 -62 -18 -98 1 -35 18 -51 45 -52 86 -3 83 89 132 162
87z m-56 -968 c50 -49 33 -132 -34 -160 -101 -42 -190 81 -115 160 45 47 100
47 149 0z"/>
<path d="M1730 4468 c-81 -25 -155 -86 -192 -160 -59 -118 -44 -202 37 -202
44 0 70 28 79 87 4 21 14 50 23 63 23 36 90 71 147 78 61 7 89 32 88 77 -2 68
-72 90 -182 57z"/>
<path d="M4492 3792 c-75 -21 -145 -89 -166 -162 -20 -66 -20 -94 -2 -153 54
-181 286 -238 424 -105 39 39 72 123 72 186 0 160 -167 279 -328 234z m134
-159 c35 -22 49 -67 35 -112 -14 -47 -47 -71 -99 -71 -122 0 -132 183 -11 202
28 4 45 0 75 -19z"/>
<path d="M997 3788 c-23 -18 -36 -59 -26 -85 12 -31 47 -50 105 -56 149 -15
266 -143 270 -296 1 -75 -8 -107 -53 -177 -51 -80 -128 -124 -237 -137 -76
-10 -107 -51 -79 -109 22 -45 88 -52 193 -20 183 55 307 206 325 395 22 227
-140 444 -364 487 -72 13 -114 13 -134 -2z"/>
<path d="M1940 3332 c-16 -13 -26 -38 -36 -96 -17 -101 -50 -170 -107 -228
-75 -75 -138 -103 -274 -123 -74 -11 -102 -79 -54 -128 37 -38 192 -14 306 46
82 44 185 149 223 229 44 91 55 133 56 211 1 61 -2 71 -23 88 -29 24 -62 24
-91 1z"/>
<path d="M2332 3314 c-34 -14 -48 -47 -38 -89 7 -29 30 -43 83 -51 46 -7 79
-24 115 -58 59 -56 62 -168 6 -232 -38 -43 -54 -52 -120 -64 -28 -6 -60 -18
-70 -27 -26 -23 -23 -77 5 -104 19 -18 31 -20 82 -16 113 8 214 80 264 187 93
202 -38 431 -265 463 -17 3 -45 -1 -62 -9z"/>
<path d="M4297 2908 c-22 -18 -36 -59 -27 -83 4 -11 42 -54 83 -96 l75 -76
-12 -54 c-16 -67 -12 -117 12 -172 40 -90 130 -149 231 -149 68 -1 116 18 170
68 129 116 102 329 -52 409 -56 29 -142 35 -200 14 l-37 -13 -84 82 c-87 85
-119 99 -159 70z m433 -308 c65 -61 21 -170 -68 -170 -76 0 -126 69 -97 135
32 77 104 92 165 35z"/>
<path d="M622 2760 c-79 -32 -27 -248 84 -350 100 -91 165 -110 379 -110 138
0 140 0 163 25 29 34 28 70 -4 100 -24 22 -33 23 -182 27 -131 3 -163 6 -192
22 -83 45 -136 131 -139 224 -1 28 -43 72 -68 71 -10 0 -28 -4 -41 -9z"/>
<path d="M1265 1889 c-163 -9 -250 -57 -332 -183 -46 -71 -69 -188 -45 -233
21 -38 80 -46 114 -16 9 8 21 44 28 80 16 91 57 146 138 184 40 19 66 20 402
22 350 2 360 3 380 23 50 50 15 123 -59 125 -212 4 -546 3 -626 -2z"/>
<path d="M2192 1889 c-40 -8 -49 -15 -60 -48 -12 -35 3 -70 37 -87 14 -8 84
-12 193 -11 159 0 172 1 194 21 12 12 24 28 25 36 9 82 -14 92 -206 94 -85 0
-167 -2 -183 -5z"/>
<path d="M4713 1860 c-246 -112 -168 -481 102 -481 141 0 255 112 255 251 0
184 -190 306 -357 230z m172 -150 c21 -17 38 -78 31 -106 -23 -90 -152 -100
-192 -16 -28 60 6 130 71 144 24 5 72 -7 90 -22z"/>
<path d="M1549 1541 c-20 -15 -26 -29 -25 -57 1 -45 31 -70 93 -78 160 -20
249 -194 168 -331 -38 -65 -96 -102 -180 -112 -75 -9 -108 -72 -66 -124 28
-35 116 -31 202 9 80 36 123 72 164 137 58 90 75 191 50 288 -41 158 -163 263
-328 282 -44 5 -57 3 -78 -14z"/>
<path d="M4392 1082 c-199 -82 -208 -364 -14 -459 265 -130 498 220 277 415
-71 62 -174 80 -263 44z m161 -155 c76 -62 34 -180 -64 -179 -82 1 -129 89
-84 158 31 47 103 58 148 21z"/>
</g>
</svg>
